<mxfile host="app.diagrams.net" modified="2020-12-03T00:56:05.041Z" agent="5.0 (Windows)" etag="Yi6hdVqH3kyhPsZ5sAFl" version="13.10.3" type="github">
  <diagram id="J8qkS4Pi14yt7DTGiGqa" name="Página-1">
    <mxGraphModel dx="1605" dy="1859" grid="1" gridSize="10" guides="1" tooltips="1" connect="1" arrows="1" fold="1" page="1" pageScale="1" pageWidth="827" pageHeight="1169" math="0" shadow="0">
      <root>
        <mxCell id="0" />
        <mxCell id="1" parent="0" />
        <mxCell id="2c9qPF1bjNW7A1gYTIxu-21" value="Pesquisa dados do Candidato" style="html=1;align=center;verticalAlign=top;rounded=1;absoluteArcSize=1;arcSize=10;dashed=0;" parent="1" vertex="1">
          <mxGeometry x="414" y="-251" width="820" height="330" as="geometry" />
        </mxCell>
        <mxCell id="2c9qPF1bjNW7A1gYTIxu-2" style="edgeStyle=orthogonalEdgeStyle;rounded=0;orthogonalLoop=1;jettySize=auto;html=1;exitX=1;exitY=0.5;exitDx=0;exitDy=0;entryX=0;entryY=0.5;entryDx=0;entryDy=0;" parent="1" source="2c9qPF1bjNW7A1gYTIxu-1" target="2c9qPF1bjNW7A1gYTIxu-4" edge="1">
          <mxGeometry relative="1" as="geometry">
            <mxPoint x="614" y="-191" as="targetPoint" />
          </mxGeometry>
        </mxCell>
        <mxCell id="2c9qPF1bjNW7A1gYTIxu-1" value="" style="ellipse;fillColor=#000000;strokeColor=none;" parent="1" vertex="1">
          <mxGeometry x="444" y="-211" width="40" height="40" as="geometry" />
        </mxCell>
        <mxCell id="2c9qPF1bjNW7A1gYTIxu-7" style="edgeStyle=orthogonalEdgeStyle;rounded=0;orthogonalLoop=1;jettySize=auto;html=1;exitX=0.5;exitY=1;exitDx=0;exitDy=0;" parent="1" source="2c9qPF1bjNW7A1gYTIxu-4" target="2c9qPF1bjNW7A1gYTIxu-5" edge="1">
          <mxGeometry relative="1" as="geometry" />
        </mxCell>
        <mxCell id="2c9qPF1bjNW7A1gYTIxu-12" style="edgeStyle=orthogonalEdgeStyle;rounded=0;orthogonalLoop=1;jettySize=auto;html=1;exitX=1;exitY=0.5;exitDx=0;exitDy=0;entryX=0;entryY=0.5;entryDx=0;entryDy=0;" parent="1" source="2c9qPF1bjNW7A1gYTIxu-4" target="2c9qPF1bjNW7A1gYTIxu-10" edge="1">
          <mxGeometry relative="1" as="geometry" />
        </mxCell>
        <mxCell id="2c9qPF1bjNW7A1gYTIxu-4" value="Informar nome do calouro" style="rounded=1;whiteSpace=wrap;html=1;arcSize=25;" parent="1" vertex="1">
          <mxGeometry x="564" y="-221" width="110" height="60" as="geometry" />
        </mxCell>
        <mxCell id="2c9qPF1bjNW7A1gYTIxu-8" style="edgeStyle=orthogonalEdgeStyle;rounded=0;orthogonalLoop=1;jettySize=auto;html=1;exitX=0.5;exitY=1;exitDx=0;exitDy=0;entryX=0.5;entryY=0;entryDx=0;entryDy=0;" parent="1" source="2c9qPF1bjNW7A1gYTIxu-5" target="2c9qPF1bjNW7A1gYTIxu-6" edge="1">
          <mxGeometry relative="1" as="geometry">
            <mxPoint x="619" y="-1" as="targetPoint" />
          </mxGeometry>
        </mxCell>
        <mxCell id="2c9qPF1bjNW7A1gYTIxu-5" value="Correção?" style="rhombus;" parent="1" vertex="1">
          <mxGeometry x="584" y="-111" width="70" height="50" as="geometry" />
        </mxCell>
        <mxCell id="2c9qPF1bjNW7A1gYTIxu-73" value="" style="edgeStyle=orthogonalEdgeStyle;rounded=0;orthogonalLoop=1;jettySize=auto;html=1;" parent="1" source="2c9qPF1bjNW7A1gYTIxu-6" target="2c9qPF1bjNW7A1gYTIxu-72" edge="1">
          <mxGeometry relative="1" as="geometry" />
        </mxCell>
        <mxCell id="2c9qPF1bjNW7A1gYTIxu-6" value="Correção dos dados do calouro" style="rounded=1;whiteSpace=wrap;html=1;arcSize=25;" parent="1" vertex="1">
          <mxGeometry x="564" y="-11" width="110" height="60" as="geometry" />
        </mxCell>
        <mxCell id="2c9qPF1bjNW7A1gYTIxu-13" style="edgeStyle=orthogonalEdgeStyle;rounded=0;orthogonalLoop=1;jettySize=auto;html=1;exitX=1;exitY=0.5;exitDx=0;exitDy=0;entryX=0;entryY=0.5;entryDx=0;entryDy=0;" parent="1" source="2c9qPF1bjNW7A1gYTIxu-10" target="2c9qPF1bjNW7A1gYTIxu-11" edge="1">
          <mxGeometry relative="1" as="geometry" />
        </mxCell>
        <mxCell id="2c9qPF1bjNW7A1gYTIxu-10" value="Verifica qual curso matriculado" style="rounded=1;whiteSpace=wrap;html=1;arcSize=25;" parent="1" vertex="1">
          <mxGeometry x="763" y="-221" width="110" height="60" as="geometry" />
        </mxCell>
        <mxCell id="2c9qPF1bjNW7A1gYTIxu-16" style="edgeStyle=orthogonalEdgeStyle;rounded=0;orthogonalLoop=1;jettySize=auto;html=1;exitX=0.5;exitY=1;exitDx=0;exitDy=0;entryX=0.5;entryY=0;entryDx=0;entryDy=0;" parent="1" source="2c9qPF1bjNW7A1gYTIxu-11" target="2c9qPF1bjNW7A1gYTIxu-14" edge="1">
          <mxGeometry relative="1" as="geometry" />
        </mxCell>
        <mxCell id="2c9qPF1bjNW7A1gYTIxu-11" value="Confirma os dados do aluno" style="rounded=1;whiteSpace=wrap;html=1;arcSize=25;" parent="1" vertex="1">
          <mxGeometry x="964" y="-221" width="110" height="60" as="geometry" />
        </mxCell>
        <mxCell id="2c9qPF1bjNW7A1gYTIxu-66" value="" style="edgeStyle=orthogonalEdgeStyle;rounded=0;orthogonalLoop=1;jettySize=auto;html=1;" parent="1" source="2c9qPF1bjNW7A1gYTIxu-14" target="2c9qPF1bjNW7A1gYTIxu-64" edge="1">
          <mxGeometry relative="1" as="geometry" />
        </mxCell>
        <mxCell id="2c9qPF1bjNW7A1gYTIxu-14" value="Emite os dados com o RA do curso" style="rounded=1;whiteSpace=wrap;html=1;arcSize=25;" parent="1" vertex="1">
          <mxGeometry x="964" y="-86" width="110" height="60" as="geometry" />
        </mxCell>
        <mxCell id="2c9qPF1bjNW7A1gYTIxu-20" style="edgeStyle=orthogonalEdgeStyle;rounded=0;orthogonalLoop=1;jettySize=auto;html=1;entryX=0.5;entryY=0;entryDx=0;entryDy=0;" parent="1" source="2c9qPF1bjNW7A1gYTIxu-19" target="2c9qPF1bjNW7A1gYTIxu-21" edge="1">
          <mxGeometry relative="1" as="geometry">
            <mxPoint x="913.6799999999998" y="-271" as="targetPoint" />
          </mxGeometry>
        </mxCell>
        <mxCell id="2c9qPF1bjNW7A1gYTIxu-19" value="" style="ellipse;fillColor=#000000;strokeColor=none;" parent="1" vertex="1">
          <mxGeometry x="804" y="-341" width="40" height="40" as="geometry" />
        </mxCell>
        <mxCell id="2c9qPF1bjNW7A1gYTIxu-22" value="&lt;b&gt;Imprime Plano de Estudos&lt;/b&gt;" style="html=1;align=center;verticalAlign=top;rounded=1;absoluteArcSize=1;arcSize=10;dashed=0;" parent="1" vertex="1">
          <mxGeometry x="424" y="459" width="800" height="330" as="geometry" />
        </mxCell>
        <mxCell id="2c9qPF1bjNW7A1gYTIxu-33" value="" style="edgeStyle=orthogonalEdgeStyle;rounded=0;orthogonalLoop=1;jettySize=auto;html=1;" parent="1" source="2c9qPF1bjNW7A1gYTIxu-28" target="2c9qPF1bjNW7A1gYTIxu-29" edge="1">
          <mxGeometry relative="1" as="geometry" />
        </mxCell>
        <mxCell id="2c9qPF1bjNW7A1gYTIxu-28" value="" style="ellipse;fillColor=#000000;strokeColor=none;" parent="1" vertex="1">
          <mxGeometry x="444" y="509" width="40" height="40" as="geometry" />
        </mxCell>
        <mxCell id="2c9qPF1bjNW7A1gYTIxu-34" style="edgeStyle=orthogonalEdgeStyle;rounded=0;orthogonalLoop=1;jettySize=auto;html=1;exitX=1;exitY=0.5;exitDx=0;exitDy=0;" parent="1" source="2c9qPF1bjNW7A1gYTIxu-29" target="2c9qPF1bjNW7A1gYTIxu-30" edge="1">
          <mxGeometry relative="1" as="geometry" />
        </mxCell>
        <mxCell id="2c9qPF1bjNW7A1gYTIxu-29" value="Informa o nome do curso do calouro" style="rounded=1;whiteSpace=wrap;html=1;arcSize=25;" parent="1" vertex="1">
          <mxGeometry x="564" y="499" width="110" height="60" as="geometry" />
        </mxCell>
        <mxCell id="2c9qPF1bjNW7A1gYTIxu-35" style="edgeStyle=orthogonalEdgeStyle;rounded=0;orthogonalLoop=1;jettySize=auto;html=1;exitX=1;exitY=0.5;exitDx=0;exitDy=0;" parent="1" source="2c9qPF1bjNW7A1gYTIxu-30" target="2c9qPF1bjNW7A1gYTIxu-31" edge="1">
          <mxGeometry relative="1" as="geometry" />
        </mxCell>
        <mxCell id="2c9qPF1bjNW7A1gYTIxu-38" value="" style="edgeStyle=orthogonalEdgeStyle;rounded=0;orthogonalLoop=1;jettySize=auto;html=1;" parent="1" source="2c9qPF1bjNW7A1gYTIxu-30" target="2c9qPF1bjNW7A1gYTIxu-36" edge="1">
          <mxGeometry relative="1" as="geometry" />
        </mxCell>
        <mxCell id="2c9qPF1bjNW7A1gYTIxu-30" value="Emite pedido do Plano de Estudo" style="rounded=1;whiteSpace=wrap;html=1;arcSize=25;" parent="1" vertex="1">
          <mxGeometry x="763" y="499" width="110" height="60" as="geometry" />
        </mxCell>
        <mxCell id="2c9qPF1bjNW7A1gYTIxu-70" style="edgeStyle=orthogonalEdgeStyle;rounded=0;orthogonalLoop=1;jettySize=auto;html=1;exitX=1;exitY=0.5;exitDx=0;exitDy=0;entryX=0.5;entryY=0;entryDx=0;entryDy=0;" parent="1" source="2c9qPF1bjNW7A1gYTIxu-31" target="2c9qPF1bjNW7A1gYTIxu-62" edge="1">
          <mxGeometry relative="1" as="geometry" />
        </mxCell>
        <mxCell id="2c9qPF1bjNW7A1gYTIxu-31" value="Plano de Estudo entregue" style="rounded=1;whiteSpace=wrap;html=1;arcSize=25;" parent="1" vertex="1">
          <mxGeometry x="964" y="499" width="110" height="60" as="geometry" />
        </mxCell>
        <mxCell id="2c9qPF1bjNW7A1gYTIxu-39" value="" style="edgeStyle=orthogonalEdgeStyle;rounded=0;orthogonalLoop=1;jettySize=auto;html=1;" parent="1" source="2c9qPF1bjNW7A1gYTIxu-36" target="2c9qPF1bjNW7A1gYTIxu-37" edge="1">
          <mxGeometry relative="1" as="geometry" />
        </mxCell>
        <mxCell id="2c9qPF1bjNW7A1gYTIxu-41" style="edgeStyle=orthogonalEdgeStyle;rounded=0;orthogonalLoop=1;jettySize=auto;html=1;" parent="1" source="2c9qPF1bjNW7A1gYTIxu-36" target="2c9qPF1bjNW7A1gYTIxu-31" edge="1">
          <mxGeometry relative="1" as="geometry" />
        </mxCell>
        <mxCell id="2c9qPF1bjNW7A1gYTIxu-36" value="Disponivel?" style="rhombus;" parent="1" vertex="1">
          <mxGeometry x="783" y="609" width="70" height="50" as="geometry" />
        </mxCell>
        <mxCell id="2c9qPF1bjNW7A1gYTIxu-47" style="edgeStyle=orthogonalEdgeStyle;rounded=0;orthogonalLoop=1;jettySize=auto;html=1;exitX=1;exitY=0.5;exitDx=0;exitDy=0;entryX=0;entryY=0.5;entryDx=0;entryDy=0;" parent="1" source="2c9qPF1bjNW7A1gYTIxu-37" target="2c9qPF1bjNW7A1gYTIxu-43" edge="1">
          <mxGeometry relative="1" as="geometry" />
        </mxCell>
        <mxCell id="2c9qPF1bjNW7A1gYTIxu-37" value="Informação para acesso ao AVA para emissão do Plano de Estudo" style="rounded=1;whiteSpace=wrap;html=1;arcSize=25;" parent="1" vertex="1">
          <mxGeometry x="763" y="709" width="110" height="60" as="geometry" />
        </mxCell>
        <mxCell id="2c9qPF1bjNW7A1gYTIxu-40" value="[Não]" style="text;html=1;align=center;verticalAlign=middle;resizable=0;points=[];autosize=1;" parent="1" vertex="1">
          <mxGeometry x="833" y="669" width="40" height="20" as="geometry" />
        </mxCell>
        <mxCell id="2c9qPF1bjNW7A1gYTIxu-42" value="[Sim]" style="text;html=1;align=center;verticalAlign=middle;resizable=0;points=[];autosize=1;" parent="1" vertex="1">
          <mxGeometry x="904" y="599" width="40" height="20" as="geometry" />
        </mxCell>
        <mxCell id="2c9qPF1bjNW7A1gYTIxu-71" style="edgeStyle=orthogonalEdgeStyle;rounded=0;orthogonalLoop=1;jettySize=auto;html=1;exitX=0.5;exitY=0;exitDx=0;exitDy=0;entryX=0.5;entryY=1;entryDx=0;entryDy=0;" parent="1" source="2c9qPF1bjNW7A1gYTIxu-43" target="2c9qPF1bjNW7A1gYTIxu-62" edge="1">
          <mxGeometry relative="1" as="geometry" />
        </mxCell>
        <mxCell id="2c9qPF1bjNW7A1gYTIxu-43" value="Plano de Estudo pode ser emitido no AVA" style="rounded=1;whiteSpace=wrap;html=1;arcSize=25;" parent="1" vertex="1">
          <mxGeometry x="1084" y="709" width="110" height="60" as="geometry" />
        </mxCell>
        <mxCell id="2c9qPF1bjNW7A1gYTIxu-45" value="[Demora da emissão 3 a 5 dias]" style="text;html=1;align=center;verticalAlign=middle;resizable=0;points=[];autosize=1;" parent="1" vertex="1">
          <mxGeometry x="873" y="719" width="190" height="20" as="geometry" />
        </mxCell>
        <mxCell id="2c9qPF1bjNW7A1gYTIxu-48" value="&lt;b&gt;Confirma Matricula&lt;/b&gt;" style="html=1;align=center;verticalAlign=top;rounded=1;absoluteArcSize=1;arcSize=10;dashed=0;" parent="1" vertex="1">
          <mxGeometry x="414" y="109" width="810" height="330" as="geometry" />
        </mxCell>
        <mxCell id="2c9qPF1bjNW7A1gYTIxu-53" style="edgeStyle=orthogonalEdgeStyle;rounded=0;orthogonalLoop=1;jettySize=auto;html=1;entryX=0;entryY=0.5;entryDx=0;entryDy=0;" parent="1" source="2c9qPF1bjNW7A1gYTIxu-49" target="2c9qPF1bjNW7A1gYTIxu-50" edge="1">
          <mxGeometry relative="1" as="geometry" />
        </mxCell>
        <mxCell id="2c9qPF1bjNW7A1gYTIxu-49" value="" style="ellipse;fillColor=#000000;strokeColor=none;" parent="1" vertex="1">
          <mxGeometry x="444" y="179" width="40" height="40" as="geometry" />
        </mxCell>
        <mxCell id="2c9qPF1bjNW7A1gYTIxu-54" style="edgeStyle=orthogonalEdgeStyle;rounded=0;orthogonalLoop=1;jettySize=auto;html=1;" parent="1" source="2c9qPF1bjNW7A1gYTIxu-50" target="2c9qPF1bjNW7A1gYTIxu-51" edge="1">
          <mxGeometry relative="1" as="geometry" />
        </mxCell>
        <mxCell id="2c9qPF1bjNW7A1gYTIxu-50" value="Informa o nome do aluno" style="rounded=1;whiteSpace=wrap;html=1;arcSize=25;" parent="1" vertex="1">
          <mxGeometry x="564" y="169" width="110" height="60" as="geometry" />
        </mxCell>
        <mxCell id="2c9qPF1bjNW7A1gYTIxu-55" style="edgeStyle=orthogonalEdgeStyle;rounded=0;orthogonalLoop=1;jettySize=auto;html=1;" parent="1" source="2c9qPF1bjNW7A1gYTIxu-51" target="2c9qPF1bjNW7A1gYTIxu-52" edge="1">
          <mxGeometry relative="1" as="geometry" />
        </mxCell>
        <mxCell id="2c9qPF1bjNW7A1gYTIxu-57" style="edgeStyle=orthogonalEdgeStyle;rounded=0;orthogonalLoop=1;jettySize=auto;html=1;entryX=0.5;entryY=0;entryDx=0;entryDy=0;" parent="1" source="2c9qPF1bjNW7A1gYTIxu-51" target="2c9qPF1bjNW7A1gYTIxu-56" edge="1">
          <mxGeometry relative="1" as="geometry" />
        </mxCell>
        <mxCell id="2c9qPF1bjNW7A1gYTIxu-51" value="informa qual curso matriculado" style="rounded=1;whiteSpace=wrap;html=1;arcSize=25;" parent="1" vertex="1">
          <mxGeometry x="763" y="169" width="110" height="60" as="geometry" />
        </mxCell>
        <mxCell id="2c9qPF1bjNW7A1gYTIxu-67" value="" style="edgeStyle=orthogonalEdgeStyle;rounded=0;orthogonalLoop=1;jettySize=auto;html=1;" parent="1" source="2c9qPF1bjNW7A1gYTIxu-52" target="2c9qPF1bjNW7A1gYTIxu-63" edge="1">
          <mxGeometry relative="1" as="geometry" />
        </mxCell>
        <mxCell id="2c9qPF1bjNW7A1gYTIxu-52" value="Confirma os dados do aluno" style="rounded=1;whiteSpace=wrap;html=1;arcSize=25;" parent="1" vertex="1">
          <mxGeometry x="964" y="169" width="110" height="60" as="geometry" />
        </mxCell>
        <mxCell id="2c9qPF1bjNW7A1gYTIxu-60" style="edgeStyle=orthogonalEdgeStyle;rounded=0;orthogonalLoop=1;jettySize=auto;html=1;exitX=1;exitY=0.5;exitDx=0;exitDy=0;" parent="1" source="2c9qPF1bjNW7A1gYTIxu-56" target="2c9qPF1bjNW7A1gYTIxu-59" edge="1">
          <mxGeometry relative="1" as="geometry" />
        </mxCell>
        <mxCell id="2c9qPF1bjNW7A1gYTIxu-56" value="Matriculou em &#xa;outros cursos?" style="rhombus;" parent="1" vertex="1">
          <mxGeometry x="733" y="331.5" width="111" height="95" as="geometry" />
        </mxCell>
        <mxCell id="2c9qPF1bjNW7A1gYTIxu-68" value="" style="edgeStyle=orthogonalEdgeStyle;rounded=0;orthogonalLoop=1;jettySize=auto;html=1;" parent="1" source="2c9qPF1bjNW7A1gYTIxu-59" target="2c9qPF1bjNW7A1gYTIxu-63" edge="1">
          <mxGeometry relative="1" as="geometry" />
        </mxCell>
        <mxCell id="2c9qPF1bjNW7A1gYTIxu-59" value="Confirma os dados dos cursos e o RA" style="rounded=1;whiteSpace=wrap;html=1;arcSize=25;" parent="1" vertex="1">
          <mxGeometry x="974" y="349" width="110" height="60" as="geometry" />
        </mxCell>
        <mxCell id="2c9qPF1bjNW7A1gYTIxu-62" value="" style="ellipse;html=1;shape=endState;fillColor=#000000;strokeColor=#000000;" parent="1" vertex="1">
          <mxGeometry x="1124" y="599" width="30" height="30" as="geometry" />
        </mxCell>
        <mxCell id="2c9qPF1bjNW7A1gYTIxu-63" value="" style="ellipse;html=1;shape=endState;fillColor=#000000;strokeColor=#000000;" parent="1" vertex="1">
          <mxGeometry x="1124" y="249" width="30" height="30" as="geometry" />
        </mxCell>
        <mxCell id="2c9qPF1bjNW7A1gYTIxu-64" value="" style="ellipse;html=1;shape=endState;fillColor=#000000;strokeColor=#000000;" parent="1" vertex="1">
          <mxGeometry x="1164" y="-71" width="30" height="30" as="geometry" />
        </mxCell>
        <mxCell id="2c9qPF1bjNW7A1gYTIxu-72" value="Alteração dos dados do aluno" style="rounded=1;whiteSpace=wrap;html=1;arcSize=25;" parent="1" vertex="1">
          <mxGeometry x="794" y="-11" width="110" height="60" as="geometry" />
        </mxCell>
        <mxCell id="2c9qPF1bjNW7A1gYTIxu-74" value="&amp;lt;&amp;lt;extends&amp;gt;&amp;gt;" style="text;html=1;align=center;verticalAlign=middle;resizable=0;points=[];autosize=1;" parent="1" vertex="1">
          <mxGeometry x="689" y="-1" width="90" height="20" as="geometry" />
        </mxCell>
        <mxCell id="2c9qPF1bjNW7A1gYTIxu-75" value="&lt;b&gt;Verifica a Situação Financeira&lt;/b&gt;" style="html=1;align=center;verticalAlign=top;rounded=1;absoluteArcSize=1;arcSize=10;dashed=0;" parent="1" vertex="1">
          <mxGeometry x="424" y="839" width="800" height="191" as="geometry" />
        </mxCell>
        <mxCell id="2c9qPF1bjNW7A1gYTIxu-79" value="" style="edgeStyle=orthogonalEdgeStyle;rounded=0;orthogonalLoop=1;jettySize=auto;html=1;" parent="1" source="2c9qPF1bjNW7A1gYTIxu-76" target="2c9qPF1bjNW7A1gYTIxu-77" edge="1">
          <mxGeometry relative="1" as="geometry" />
        </mxCell>
        <mxCell id="2c9qPF1bjNW7A1gYTIxu-76" value="" style="ellipse;fillColor=#000000;strokeColor=none;" parent="1" vertex="1">
          <mxGeometry x="454" y="909" width="40" height="40" as="geometry" />
        </mxCell>
        <mxCell id="2c9qPF1bjNW7A1gYTIxu-80" value="" style="edgeStyle=orthogonalEdgeStyle;rounded=0;orthogonalLoop=1;jettySize=auto;html=1;" parent="1" source="2c9qPF1bjNW7A1gYTIxu-77" target="2c9qPF1bjNW7A1gYTIxu-78" edge="1">
          <mxGeometry relative="1" as="geometry" />
        </mxCell>
        <mxCell id="2c9qPF1bjNW7A1gYTIxu-77" value="Informa o nome e o curso do calouro" style="rounded=1;whiteSpace=wrap;html=1;arcSize=25;" parent="1" vertex="1">
          <mxGeometry x="574" y="899" width="110" height="60" as="geometry" />
        </mxCell>
        <mxCell id="2c9qPF1bjNW7A1gYTIxu-83" value="" style="edgeStyle=orthogonalEdgeStyle;rounded=0;orthogonalLoop=1;jettySize=auto;html=1;" parent="1" source="2c9qPF1bjNW7A1gYTIxu-78" target="2c9qPF1bjNW7A1gYTIxu-81" edge="1">
          <mxGeometry relative="1" as="geometry" />
        </mxCell>
        <mxCell id="2c9qPF1bjNW7A1gYTIxu-78" value="Verifica o preço dos cursos" style="rounded=1;whiteSpace=wrap;html=1;arcSize=25;" parent="1" vertex="1">
          <mxGeometry x="773" y="899" width="110" height="60" as="geometry" />
        </mxCell>
        <mxCell id="2c9qPF1bjNW7A1gYTIxu-85" style="edgeStyle=orthogonalEdgeStyle;rounded=0;orthogonalLoop=1;jettySize=auto;html=1;exitX=0.5;exitY=1;exitDx=0;exitDy=0;entryX=0.5;entryY=0;entryDx=0;entryDy=0;" parent="1" source="2c9qPF1bjNW7A1gYTIxu-81" target="2c9qPF1bjNW7A1gYTIxu-95" edge="1">
          <mxGeometry relative="1" as="geometry">
            <mxPoint x="859.0000000000005" y="1124.5" as="targetPoint" />
          </mxGeometry>
        </mxCell>
        <mxCell id="2c9qPF1bjNW7A1gYTIxu-81" value="Verifica a situação financeira do Aluno" style="rounded=1;whiteSpace=wrap;html=1;arcSize=25;" parent="1" vertex="1">
          <mxGeometry x="953" y="899" width="110" height="60" as="geometry" />
        </mxCell>
        <mxCell id="2c9qPF1bjNW7A1gYTIxu-94" value="" style="edgeStyle=orthogonalEdgeStyle;rounded=0;orthogonalLoop=1;jettySize=auto;html=1;exitX=0.5;exitY=1;exitDx=0;exitDy=0;" parent="1" source="2c9qPF1bjNW7A1gYTIxu-95" target="2c9qPF1bjNW7A1gYTIxu-86" edge="1">
          <mxGeometry relative="1" as="geometry">
            <mxPoint x="759.5" y="1169" as="sourcePoint" />
            <Array as="points">
              <mxPoint x="814" y="1169" />
              <mxPoint x="824" y="1169" />
            </Array>
          </mxGeometry>
        </mxCell>
        <mxCell id="2c9qPF1bjNW7A1gYTIxu-110" value="" style="edgeStyle=orthogonalEdgeStyle;rounded=0;orthogonalLoop=1;jettySize=auto;html=1;" parent="1" source="2c9qPF1bjNW7A1gYTIxu-86" target="2c9qPF1bjNW7A1gYTIxu-98" edge="1">
          <mxGeometry relative="1" as="geometry" />
        </mxCell>
        <mxCell id="2c9qPF1bjNW7A1gYTIxu-86" value="Liberação dos boletos" style="html=1;align=center;verticalAlign=top;rounded=1;absoluteArcSize=1;arcSize=10;dashed=0;" parent="1" vertex="1">
          <mxGeometry x="414" y="1050" width="800" height="410" as="geometry" />
        </mxCell>
        <mxCell id="2c9qPF1bjNW7A1gYTIxu-91" value="" style="edgeStyle=orthogonalEdgeStyle;rounded=0;orthogonalLoop=1;jettySize=auto;html=1;" parent="1" source="2c9qPF1bjNW7A1gYTIxu-87" target="2c9qPF1bjNW7A1gYTIxu-88" edge="1">
          <mxGeometry relative="1" as="geometry" />
        </mxCell>
        <mxCell id="2c9qPF1bjNW7A1gYTIxu-87" value="" style="ellipse;fillColor=#000000;strokeColor=none;" parent="1" vertex="1">
          <mxGeometry x="444" y="1130" width="40" height="40" as="geometry" />
        </mxCell>
        <mxCell id="2c9qPF1bjNW7A1gYTIxu-92" value="" style="edgeStyle=orthogonalEdgeStyle;rounded=0;orthogonalLoop=1;jettySize=auto;html=1;" parent="1" source="2c9qPF1bjNW7A1gYTIxu-88" target="2c9qPF1bjNW7A1gYTIxu-89" edge="1">
          <mxGeometry relative="1" as="geometry" />
        </mxCell>
        <mxCell id="2c9qPF1bjNW7A1gYTIxu-88" value="Verifica o nome e o curso do calouro" style="rounded=1;whiteSpace=wrap;html=1;arcSize=25;" parent="1" vertex="1">
          <mxGeometry x="564" y="1120" width="110" height="60" as="geometry" />
        </mxCell>
        <mxCell id="2c9qPF1bjNW7A1gYTIxu-93" value="" style="edgeStyle=orthogonalEdgeStyle;rounded=0;orthogonalLoop=1;jettySize=auto;html=1;" parent="1" source="2c9qPF1bjNW7A1gYTIxu-89" target="2c9qPF1bjNW7A1gYTIxu-90" edge="1">
          <mxGeometry relative="1" as="geometry" />
        </mxCell>
        <mxCell id="2c9qPF1bjNW7A1gYTIxu-97" value="" style="edgeStyle=orthogonalEdgeStyle;rounded=0;orthogonalLoop=1;jettySize=auto;html=1;" parent="1" source="2c9qPF1bjNW7A1gYTIxu-89" target="2c9qPF1bjNW7A1gYTIxu-96" edge="1">
          <mxGeometry relative="1" as="geometry" />
        </mxCell>
        <mxCell id="2c9qPF1bjNW7A1gYTIxu-89" value="Verifica o preço dos cursos" style="rounded=1;whiteSpace=wrap;html=1;arcSize=25;" parent="1" vertex="1">
          <mxGeometry x="763" y="1120" width="110" height="60" as="geometry" />
        </mxCell>
        <mxCell id="2c9qPF1bjNW7A1gYTIxu-115" style="edgeStyle=orthogonalEdgeStyle;rounded=0;orthogonalLoop=1;jettySize=auto;html=1;entryX=0.5;entryY=0;entryDx=0;entryDy=0;" parent="1" source="2c9qPF1bjNW7A1gYTIxu-90" target="2c9qPF1bjNW7A1gYTIxu-103" edge="1">
          <mxGeometry relative="1" as="geometry" />
        </mxCell>
        <mxCell id="2c9qPF1bjNW7A1gYTIxu-90" value="Verifica os descontos do curso" style="rounded=1;whiteSpace=wrap;html=1;arcSize=25;" parent="1" vertex="1">
          <mxGeometry x="943" y="1120" width="110" height="60" as="geometry" />
        </mxCell>
        <mxCell id="2c9qPF1bjNW7A1gYTIxu-95" value="&lt;div&gt;Comunicar com a financeira&lt;/div&gt;&lt;div&gt; para liberação do boleto&lt;/div&gt;" style="html=1;" parent="1" vertex="1">
          <mxGeometry x="1320" y="980" width="151" height="70" as="geometry" />
        </mxCell>
        <mxCell id="2c9qPF1bjNW7A1gYTIxu-111" value="" style="edgeStyle=orthogonalEdgeStyle;rounded=0;orthogonalLoop=1;jettySize=auto;html=1;" parent="1" source="2c9qPF1bjNW7A1gYTIxu-96" target="2c9qPF1bjNW7A1gYTIxu-104" edge="1">
          <mxGeometry relative="1" as="geometry" />
        </mxCell>
        <mxCell id="2c9qPF1bjNW7A1gYTIxu-96" value="Verificar a forma de ingresso na matricula" style="rounded=1;whiteSpace=wrap;html=1;arcSize=25;" parent="1" vertex="1">
          <mxGeometry x="763" y="1250" width="110" height="60" as="geometry" />
        </mxCell>
        <mxCell id="2c9qPF1bjNW7A1gYTIxu-98" value="" style="ellipse;html=1;shape=endState;fillColor=#000000;strokeColor=#ff0000;" parent="1" vertex="1">
          <mxGeometry x="778.5" y="1510" width="51.5" height="50" as="geometry" />
        </mxCell>
        <mxCell id="2c9qPF1bjNW7A1gYTIxu-103" value="Desconto aplicado" style="rounded=1;whiteSpace=wrap;html=1;arcSize=25;" parent="1" vertex="1">
          <mxGeometry x="1094" y="1200" width="110" height="60" as="geometry" />
        </mxCell>
        <mxCell id="2c9qPF1bjNW7A1gYTIxu-112" style="edgeStyle=orthogonalEdgeStyle;rounded=0;orthogonalLoop=1;jettySize=auto;html=1;exitX=1;exitY=0.5;exitDx=0;exitDy=0;" parent="1" source="2c9qPF1bjNW7A1gYTIxu-104" target="2c9qPF1bjNW7A1gYTIxu-103" edge="1">
          <mxGeometry relative="1" as="geometry" />
        </mxCell>
        <mxCell id="2c9qPF1bjNW7A1gYTIxu-104" value="Desconto?" style="rhombus;" parent="1" vertex="1">
          <mxGeometry x="955" y="1240" width="86" height="80" as="geometry" />
        </mxCell>
        <mxCell id="2c9qPF1bjNW7A1gYTIxu-108" value="" style="ellipse;html=1;shape=endState;fillColor=#000000;strokeColor=#000000;" parent="1" vertex="1">
          <mxGeometry x="934" y="1400" width="30" height="30" as="geometry" />
        </mxCell>
        <mxCell id="ZT4xE9N7z-MNyzdh1v_f-5" style="edgeStyle=orthogonalEdgeStyle;rounded=0;orthogonalLoop=1;jettySize=auto;html=1;entryX=1;entryY=0.5;entryDx=0;entryDy=0;" edge="1" parent="1" source="ZT4xE9N7z-MNyzdh1v_f-2" target="2c9qPF1bjNW7A1gYTIxu-108">
          <mxGeometry relative="1" as="geometry" />
        </mxCell>
        <mxCell id="ZT4xE9N7z-MNyzdh1v_f-2" value="Boleto Liberado" style="rounded=1;whiteSpace=wrap;html=1;arcSize=25;" vertex="1" parent="1">
          <mxGeometry x="1090" y="1330" width="110" height="60" as="geometry" />
        </mxCell>
        <mxCell id="ZT4xE9N7z-MNyzdh1v_f-3" style="edgeStyle=orthogonalEdgeStyle;rounded=0;orthogonalLoop=1;jettySize=auto;html=1;" edge="1" parent="1" source="2c9qPF1bjNW7A1gYTIxu-103" target="ZT4xE9N7z-MNyzdh1v_f-2">
          <mxGeometry relative="1" as="geometry">
            <mxPoint x="1149" y="1260" as="sourcePoint" />
            <mxPoint x="1149" y="1380" as="targetPoint" />
          </mxGeometry>
        </mxCell>
      </root>
    </mxGraphModel>
  </diagram>
</mxfile>
